<?xml version="1.0" encoding="UTF-8"?>
<svg width="747px" height="83px" viewBox="0 0 747 83" version="1.1" xmlns="http://www.w3.org/2000/svg" xmlns:xlink="http://www.w3.org/1999/xlink">
    <!-- Generator: Sketch 60.1 (88133) - https://sketch.com -->
    <title>BY-TOOLS</title>
    <desc>Created with Sketch.</desc>
    <defs>
        <linearGradient x1="0%" y1="49.4347422%" x2="100%" y2="50.5652578%" id="linearGradient-1">
            <stop stop-color="#61C1FE" offset="0%"></stop>
            <stop stop-color="#3776E9" offset="100%"></stop>
        </linearGradient>
        <linearGradient x1="0%" y1="49.1741937%" x2="100%" y2="50.3586485%" id="linearGradient-2">
            <stop stop-color="#61C1FE" offset="0%"></stop>
            <stop stop-color="#3776E9" offset="100%"></stop>
        </linearGradient>
    </defs>
    <g id="页面1" stroke="none" stroke-width="1" fill="none" fill-rule="evenodd">
        <g id="首页" transform="translate(-577.000000, -118.000000)" fill="url(#linearGradient-1)" fill-rule="nonzero" stroke="url(#linearGradient-2)" stroke-width="3">
            <path d="M660.108696,199 C663.076087,199 665.466486,198.094792 667.279891,196.284375 C669.093297,194.473958 670,192.0875 670,189.125 L670,189.125 L670,129.875 C670,126.9125 669.093297,124.526042 667.279891,122.715625 C665.466486,120.905208 663.076087,120 660.108696,120 L660.108696,120 L588.891304,120 C585.923913,120 583.533514,120.905208 581.720109,122.715625 C579.906703,124.526042 579,126.9125 579,129.875 C579,132.8375 579.906703,135.223958 581.720109,137.034375 C583.533514,138.844792 585.923913,139.75 588.891304,139.75 L588.891304,139.75 L645.271739,139.75 C648.568841,139.75 650.217391,141.395833 650.217391,144.6875 C650.217391,147.979167 648.568841,149.625 645.271739,149.625 L645.271739,149.625 L618.565217,149.625 C615.597826,149.625 613.207428,150.530208 611.394022,152.340625 C609.580616,154.151042 608.673913,156.5375 608.673913,159.5 C608.673913,162.4625 609.580616,164.848958 611.394022,166.659375 C613.207428,168.469792 615.597826,169.375 618.565217,169.375 L618.565217,169.375 L645.271739,169.375 C648.568841,169.375 650.217391,171.020833 650.217391,174.3125 C650.217391,177.604167 648.568841,179.25 645.271739,179.25 L645.271739,179.25 L618.565217,179.25 C615.597826,179.25 613.207428,180.155208 611.394022,181.965625 C609.580616,183.776042 608.673913,186.1625 608.673913,189.125 C608.673913,192.0875 609.580616,194.473958 611.394022,196.284375 C613.207428,198.094792 615.597826,199 618.565217,199 L618.565217,199 L660.108696,199 Z M660,194 L618,194 C616.6,194 615.416667,193.530476 614.45,192.591429 C613.483333,191.652381 613,190.502857 613,189.142857 C613,187.782857 613.483333,186.633333 614.45,185.694286 C615.416667,184.755238 616.6,184.285714 618,184.285714 L618,184.285714 L645,184.285714 C648,184.285714 650.416667,183.395238 652.25,181.614286 C654.083333,179.833333 655,177.485714 655,174.571429 C655,171.657143 654.083333,169.309524 652.25,167.528571 C650.416667,165.747619 648,164.857143 645,164.857143 L645,164.857143 L618,164.857143 C616.6,164.857143 615.416667,164.387619 614.45,163.448571 C613.483333,162.509524 613,161.36 613,160 C613,158.64 613.483333,157.490476 614.45,156.551429 C615.416667,155.612381 616.6,155.142857 618,155.142857 L618,155.142857 L645,155.142857 C648,155.142857 650.416667,154.252381 652.25,152.471429 C654.083333,150.690476 655,148.342857 655,145.428571 C655,142.514286 654.083333,140.166667 652.25,138.385714 C650.416667,136.604762 648,135.714286 645,135.714286 L645,135.714286 L588,135.714286 C586.6,135.714286 585.416667,135.244762 584.45,134.305714 C583.483333,133.366667 583,132.217143 583,130.857143 C583,129.497143 583.483333,128.347619 584.45,127.408571 C585.416667,126.469524 586.6,126 588,126 L588,126 L660,126 C661.4,126 662.583333,126.469524 663.55,127.408571 C664.516667,128.347619 665,129.497143 665,130.857143 L665,130.857143 L665,189.142857 C665,190.502857 664.516667,191.652381 663.55,192.591429 C662.583333,193.530476 661.4,194 660,194 L660,194 Z M589,198 C592,198 594.416667,197.101667 596.25,195.305 C598.083333,193.508333 599,191.14 599,188.2 L599,188.2 L599,158.8 C599,155.86 598.083333,153.491667 596.25,151.695 C594.416667,149.898333 592,149 589,149 C586,149 583.583333,149.898333 581.75,151.695 C579.916667,153.491667 579,155.86 579,158.8 L579,158.8 L579,188.2 C579,191.14 579.916667,193.508333 581.75,195.305 C583.583333,197.101667 586,198 589,198 Z M588.5,194 C586.96,194 585.658333,193.516667 584.595,192.55 C583.531667,191.583333 583,190.4 583,189 L583,189 L583,159 C583,157.6 583.531667,156.416667 584.595,155.45 C585.658333,154.483333 586.96,154 588.5,154 C590.04,154 591.341667,154.483333 592.405,155.45 C593.468333,156.416667 594,157.6 594,159 L594,159 L594,189 C594,190.4 593.468333,191.583333 592.405,192.55 C591.341667,193.516667 590.04,194 588.5,194 Z M723.5,149 C726.467391,149 729.896377,148.51049 733.786957,147.531469 L733.786957,147.531469 L761.086957,140.482517 C766.362319,139.177156 769,136.109557 769,131.27972 C769,128.342657 768.159239,125.895105 766.477717,123.937063 C764.796196,121.979021 762.471739,121 759.504348,121 C758.581159,121 757.756884,121.097902 757.031522,121.293706 L757.031522,121.293706 L733.58913,127.951049 C729.830435,128.995338 726.533333,129.517483 723.697826,129.517483 C720.796377,129.517483 717.499275,128.995338 713.806522,127.951049 L713.806522,127.951049 L690.067391,121.293706 C689.342029,121.097902 688.517754,121 687.594565,121 C684.627174,121 682.286232,121.962704 680.571739,123.888112 C678.857246,125.81352 678,128.277389 678,131.27972 C678,136.109557 680.637681,139.177156 685.913043,140.482517 L685.913043,140.482517 L714.004348,147.531469 C717.894928,148.51049 721.060145,149 723.5,149 Z M723,143 C721.748971,143 720.168724,142.805405 718.259259,142.416216 C715.164609,141.832432 713.584362,141.540541 713.518519,141.540541 L713.518519,141.540541 L686.753086,134.632432 C684.251029,133.983784 683,132.394595 683,129.864865 C683,128.502703 683.477366,127.351351 684.432099,126.410811 C685.386831,125.47027 686.522634,125 687.839506,125 C688.300412,125 688.728395,125.064865 689.123457,125.194595 L689.123457,125.194595 L713.716049,131.908108 C713.781893,131.908108 715.36214,132.2 718.45679,132.783784 C720.366255,133.172973 721.946502,133.367568 723.197531,133.367568 C724.44856,133.367568 726.028807,133.172973 727.938272,132.783784 C731.032922,132.2 732.613169,131.908108 732.679012,131.908108 L732.679012,131.908108 L756.876543,125.194595 C757.271605,125.064865 757.699588,125 758.160494,125 C759.477366,125 760.613169,125.47027 761.567901,126.410811 C762.522634,127.351351 763,128.502703 763,129.864865 C763,132.394595 761.748971,133.983784 759.246914,134.632432 L759.246914,134.632432 L732.481481,141.540541 C732.415638,141.540541 730.835391,141.832432 727.740741,142.416216 C725.831276,142.805405 724.251029,143 723,143 Z M723,199 C726,199 728.416667,198.083333 730.25,196.25 C732.083333,194.416667 733,192 733,189 L733,189 L733,169 C733,166 732.083333,163.583333 730.25,161.75 C728.416667,159.916667 726,159 723,159 C720,159 717.583333,159.916667 715.75,161.75 C713.916667,163.583333 713,166 713,169 L713,169 L713,189 C713,192 713.916667,194.416667 715.75,196.25 C717.583333,198.083333 720,199 723,199 Z M723.5,194 C722.3,194 721.25,193.5 720.35,192.5 C719.45,191.5 719,190.333333 719,189 L719,189 L719,169 C719,167.666667 719.45,166.5 720.35,165.5 C721.25,164.5 722.3,164 723.5,164 C724.7,164 725.75,164.5 726.65,165.5 C727.55,166.5 728,167.666667 728,169 L728,169 L728,189 C728,190.333333 727.55,191.5 726.65,192.5 C725.75,193.5 724.7,194 723.5,194 Z M818.192308,169 C821.134615,169 823.504808,168.083333 825.302885,166.25 C827.100962,164.416667 828,162 828,159 C828,156 827.100962,153.583333 825.302885,151.75 C823.504808,149.916667 821.134615,149 818.192308,149 L818.192308,149 L786.807692,149 C783.865385,149 781.495192,149.916667 779.697115,151.75 C777.899038,153.583333 777,156 777,159 C777,162 777.899038,164.416667 779.697115,166.25 C781.495192,168.083333 783.865385,169 786.807692,169 L786.807692,169 L818.192308,169 Z M818,163 L786,163 C784.6,163 783.416667,162.565 782.45,161.695 C781.483333,160.825 781,159.76 781,158.5 C781,157.24 781.483333,156.175 782.45,155.305 C783.416667,154.435 784.6,154 786,154 L786,154 L818,154 C819.4,154 820.583333,154.435 821.55,155.305 C822.516667,156.175 823,157.24 823,158.5 C823,159.76 822.516667,160.825 821.55,161.695 C820.583333,162.565 819.4,163 818,163 L818,163 Z M881.821429,199 C884.767857,199 887.141369,198.094792 888.941964,196.284375 C890.74256,194.473958 891.642857,192.0875 891.642857,189.125 L891.642857,189.125 L891.642857,144.6875 C891.642857,141.395833 893.279762,139.75 896.553571,139.75 L896.553571,139.75 L917.178571,139.75 C920.125,139.75 922.498512,138.844792 924.299107,137.034375 C926.099702,135.223958 927,132.8375 927,129.875 C927,126.9125 926.099702,124.526042 924.299107,122.715625 C922.498512,120.905208 920.125,120 917.178571,120 L917.178571,120 L881.821429,120 C878.875,120 876.501488,120.905208 874.700893,122.715625 C872.900298,124.526042 872,126.9125 872,129.875 L872,129.875 L872,189.125 C872,192.0875 872.900298,194.473958 874.700893,196.284375 C876.501488,198.094792 878.875,199 881.821429,199 Z M851,140 C854,140 856.416667,139.083333 858.25,137.25 C860.083333,135.416667 861,133 861,130 C861,127 860.083333,124.583333 858.25,122.75 C856.416667,120.916667 854,120 851,120 L851,120 L845,120 C842,120 839.583333,120.916667 837.75,122.75 C835.916667,124.583333 835,127 835,130 C835,133 835.916667,135.416667 837.75,137.25 C839.583333,139.083333 842,140 845,140 L845,140 L851,140 Z M880,194 C878.6,194 877.416667,193.530476 876.45,192.591429 C875.483333,191.652381 875,190.502857 875,189.142857 L875,189.142857 L875,130.857143 C875,129.497143 875.483333,128.347619 876.45,127.408571 C877.416667,126.469524 878.6,126 880,126 L880,126 L916,126 C917.4,126 918.583333,126.469524 919.55,127.408571 C920.516667,128.347619 921,129.497143 921,130.857143 C921,132.217143 920.516667,133.366667 919.55,134.305714 C918.583333,135.244762 917.4,135.714286 916,135.714286 L916,135.714286 L895,135.714286 C892,135.714286 889.583333,136.604762 887.75,138.385714 C885.916667,140.166667 885,142.514286 885,145.428571 L885,145.428571 L885,189.142857 C885,190.502857 884.516667,191.652381 883.55,192.591429 C882.583333,193.530476 881.4,194 880,194 Z M851,135 L845,135 C843.6,135 842.416667,134.468333 841.45,133.405 C840.483333,132.341667 840,131.04 840,129.5 C840,127.96 840.483333,126.658333 841.45,125.595 C842.416667,124.531667 843.6,124 845,124 L845,124 L851,124 C852.4,124 853.583333,124.531667 854.55,125.595 C855.516667,126.658333 856,127.96 856,129.5 C856,131.04 855.516667,132.341667 854.55,133.405 C853.583333,134.468333 852.4,135 851,135 L851,135 Z M1014.16129,169 C1017.1129,169 1019.49059,168.101667 1021.29435,166.305 C1023.09812,164.508333 1024,162.14 1024,159.2 L1024,159.2 L1024,129.8 C1024,126.86 1023.09812,124.491667 1021.29435,122.695 C1019.49059,120.898333 1017.1129,120 1014.16129,120 L1014.16129,120 L972.83871,120 C969.887097,120 967.509409,120.898333 965.705645,122.695 C963.901882,124.491667 963,126.86 963,129.8 C963,132.74 963.901882,135.108333 965.705645,136.905 C967.509409,138.701667 969.887097,139.6 972.83871,139.6 L972.83871,139.6 L999.403226,139.6 C1002.6828,139.6 1004.32258,141.233333 1004.32258,144.5 L1004.32258,144.5 L1004.32258,159.2 C1004.32258,162.14 1005.22446,164.508333 1007.02823,166.305 C1008.83199,168.101667 1011.20968,169 1014.16129,169 Z M1016.1087,199 C1019.07609,199 1021.46649,198.094792 1023.27989,196.284375 C1025.0933,194.473958 1026,192.0875 1026,189.125 C1026,186.1625 1025.0933,183.776042 1023.27989,181.965625 C1021.46649,180.155208 1019.07609,179.25 1016.1087,179.25 L1016.1087,179.25 L959.728261,179.25 C956.431159,179.25 954.782609,177.604167 954.782609,174.3125 L954.782609,174.3125 L954.782609,129.875 C954.782609,126.9125 953.875906,124.526042 952.0625,122.715625 C950.249094,120.905208 947.858696,120 944.891304,120 C941.923913,120 939.533514,120.905208 937.720109,122.715625 C935.906703,124.526042 935,126.9125 935,129.875 L935,129.875 L935,189.125 C935,192.0875 935.906703,194.473958 937.720109,196.284375 C939.533514,198.094792 941.923913,199 944.891304,199 L944.891304,199 L1016.1087,199 Z M1015.09615,164 C1013.72308,164 1012.5625,163.516667 1011.61442,162.55 C1010.66635,161.583333 1010.19231,160.4 1010.19231,159 L1010.19231,159 L1010.19231,144 C1010.19231,141 1009.29327,138.583333 1007.49519,136.75 C1005.69712,134.916667 1003.32692,134 1000.38462,134 L1000.38462,134 L973.903846,134 C972.530769,134 971.370192,133.516667 970.422115,132.55 C969.474038,131.583333 969,130.4 969,129 C969,127.6 969.474038,126.416667 970.422115,125.45 C971.370192,124.483333 972.530769,124 973.903846,124 L973.903846,124 L1015.09615,124 C1016.46923,124 1017.62981,124.483333 1018.57788,125.45 C1019.52596,126.416667 1020,127.6 1020,129 L1020,129 L1020,159 C1020,160.4 1019.52596,161.583333 1018.57788,162.55 C1017.62981,163.516667 1016.46923,164 1015.09615,164 Z M1015.12195,194 L944.878049,194 C943.512195,194 942.357724,193.530476 941.414634,192.591429 C940.471545,191.652381 940,190.502857 940,189.142857 L940,189.142857 L940,130.857143 C940,129.497143 940.471545,128.347619 941.414634,127.408571 C942.357724,126.469524 943.512195,126 944.878049,126 C946.243902,126 947.398374,126.469524 948.341463,127.408571 C949.284553,128.347619 949.756098,129.497143 949.756098,130.857143 L949.756098,130.857143 L949.756098,174.571429 C949.756098,177.485714 950.650407,179.833333 952.439024,181.614286 C954.227642,183.395238 956.585366,184.285714 959.512195,184.285714 L959.512195,184.285714 L1015.12195,184.285714 C1016.4878,184.285714 1017.64228,184.755238 1018.58537,185.694286 C1019.52846,186.633333 1020,187.782857 1020,189.142857 C1020,190.502857 1019.52846,191.652381 1018.58537,192.591429 C1017.64228,193.530476 1016.4878,194 1015.12195,194 L1015.12195,194 Z M1113.16129,169 C1116.1129,169 1118.49059,168.101667 1120.29435,166.305 C1122.09812,164.508333 1123,162.14 1123,159.2 L1123,159.2 L1123,129.8 C1123,126.86 1122.09812,124.491667 1120.29435,122.695 C1118.49059,120.898333 1116.1129,120 1113.16129,120 L1113.16129,120 L1071.83871,120 C1068.8871,120 1066.50941,120.898333 1064.70565,122.695 C1062.90188,124.491667 1062,126.86 1062,129.8 C1062,132.74 1062.90188,135.108333 1064.70565,136.905 C1066.50941,138.701667 1068.8871,139.6 1071.83871,139.6 L1071.83871,139.6 L1098.40323,139.6 C1101.6828,139.6 1103.32258,141.233333 1103.32258,144.5 L1103.32258,144.5 L1103.32258,159.2 C1103.32258,162.14 1104.22446,164.508333 1106.02823,166.305 C1107.83199,168.101667 1110.20968,169 1113.16129,169 Z M1114.1087,199 C1117.07609,199 1119.46649,198.094792 1121.27989,196.284375 C1123.0933,194.473958 1124,192.0875 1124,189.125 C1124,186.1625 1123.0933,183.776042 1121.27989,181.965625 C1119.46649,180.155208 1117.07609,179.25 1114.1087,179.25 L1114.1087,179.25 L1057.72826,179.25 C1054.43116,179.25 1052.78261,177.604167 1052.78261,174.3125 L1052.78261,174.3125 L1052.78261,129.875 C1052.78261,126.9125 1051.87591,124.526042 1050.0625,122.715625 C1048.24909,120.905208 1045.8587,120 1042.8913,120 C1039.92391,120 1037.53351,120.905208 1035.72011,122.715625 C1033.9067,124.526042 1033,126.9125 1033,129.875 L1033,129.875 L1033,189.125 C1033,192.0875 1033.9067,194.473958 1035.72011,196.284375 C1037.53351,198.094792 1039.92391,199 1042.8913,199 L1042.8913,199 L1114.1087,199 Z M1114.09615,164 C1112.72308,164 1111.5625,163.516667 1110.61442,162.55 C1109.66635,161.583333 1109.19231,160.4 1109.19231,159 L1109.19231,159 L1109.19231,144 C1109.19231,141 1108.29327,138.583333 1106.49519,136.75 C1104.69712,134.916667 1102.32692,134 1099.38462,134 L1099.38462,134 L1072.90385,134 C1071.53077,134 1070.37019,133.516667 1069.42212,132.55 C1068.47404,131.583333 1068,130.4 1068,129 C1068,127.6 1068.47404,126.416667 1069.42212,125.45 C1070.37019,124.483333 1071.53077,124 1072.90385,124 L1072.90385,124 L1114.09615,124 C1115.46923,124 1116.62981,124.483333 1117.57788,125.45 C1118.52596,126.416667 1119,127.6 1119,129 L1119,129 L1119,159 C1119,160.4 1118.52596,161.583333 1117.57788,162.55 C1116.62981,163.516667 1115.46923,164 1114.09615,164 Z M1114.12195,194 L1043.87805,194 C1042.5122,194 1041.35772,193.530476 1040.41463,192.591429 C1039.47154,191.652381 1039,190.502857 1039,189.142857 L1039,189.142857 L1039,130.857143 C1039,129.497143 1039.47154,128.347619 1040.41463,127.408571 C1041.35772,126.469524 1042.5122,126 1043.87805,126 C1045.2439,126 1046.39837,126.469524 1047.34146,127.408571 C1048.28455,128.347619 1048.7561,129.497143 1048.7561,130.857143 L1048.7561,130.857143 L1048.7561,174.571429 C1048.7561,177.485714 1049.65041,179.833333 1051.43902,181.614286 C1053.22764,183.395238 1055.58537,184.285714 1058.5122,184.285714 L1058.5122,184.285714 L1114.12195,184.285714 C1115.4878,184.285714 1116.64228,184.755238 1117.58537,185.694286 C1118.52846,186.633333 1119,187.782857 1119,189.142857 C1119,190.502857 1118.52846,191.652381 1117.58537,192.591429 C1116.64228,193.530476 1115.4878,194 1114.12195,194 L1114.12195,194 Z M1142,169 C1145,169 1147.41667,168.101667 1149.25,166.305 C1151.08333,164.508333 1152,162.14 1152,159.2 L1152,159.2 L1152,129.8 C1152,126.86 1151.08333,124.491667 1149.25,122.695 C1147.41667,120.898333 1145,120 1142,120 C1139,120 1136.58333,120.898333 1134.75,122.695 C1132.91667,124.491667 1132,126.86 1132,129.8 L1132,129.8 L1132,159.2 C1132,162.14 1132.91667,164.508333 1134.75,166.305 C1136.58333,168.101667 1139,169 1142,169 Z M1142.5,164 C1141.24,164 1140.175,163.516667 1139.305,162.55 C1138.435,161.583333 1138,160.4 1138,159 L1138,159 L1138,129 C1138,127.6 1138.435,126.416667 1139.305,125.45 C1140.175,124.483333 1141.24,124 1142.5,124 C1143.76,124 1144.825,124.483333 1145.695,125.45 C1146.565,126.416667 1147,127.6 1147,129 L1147,129 L1147,159 C1147,160.4 1146.565,161.583333 1145.695,162.55 C1144.825,163.516667 1143.76,164 1142.5,164 Z M1213.1087,199 C1216.07609,199 1218.46649,198.083333 1220.27989,196.25 C1222.0933,194.416667 1223,192 1223,189 C1223,186 1222.0933,183.583333 1220.27989,181.75 C1218.46649,179.916667 1216.07609,179 1213.1087,179 L1213.1087,179 L1141.8913,179 C1138.92391,179 1136.53351,179.916667 1134.72011,181.75 C1132.9067,183.583333 1132,186 1132,189 C1132,192 1132.9067,194.416667 1134.72011,196.25 C1136.53351,198.083333 1138.92391,199 1141.8913,199 L1141.8913,199 L1213.1087,199 Z M1213,194 L1141,194 C1139.6,194 1138.41667,193.565 1137.45,192.695 C1136.48333,191.825 1136,190.76 1136,189.5 C1136,188.24 1136.48333,187.175 1137.45,186.305 C1138.41667,185.435 1139.6,185 1141,185 L1141,185 L1213,185 C1214.4,185 1215.58333,185.435 1216.55,186.305 C1217.51667,187.175 1218,188.24 1218,189.5 C1218,190.76 1217.51667,191.825 1216.55,192.695 C1215.58333,193.565 1214.4,194 1213,194 L1213,194 Z M1311.16129,140 C1314.1129,140 1316.49059,139.083333 1318.29435,137.25 C1320.09812,135.416667 1321,133 1321,130 C1321,127 1320.09812,124.583333 1318.29435,122.75 C1316.49059,120.916667 1314.1129,120 1311.16129,120 L1311.16129,120 L1269.83871,120 C1266.8871,120 1264.50941,120.916667 1262.70565,122.75 C1260.90188,124.583333 1260,127 1260,130 C1260,133 1260.90188,135.416667 1262.70565,137.25 C1264.50941,139.083333 1266.8871,140 1269.83871,140 L1269.83871,140 L1311.16129,140 Z M1312.1087,199 C1315.07609,199 1317.46649,198.094792 1319.27989,196.284375 C1321.0933,194.473958 1322,192.0875 1322,189.125 L1322,189.125 L1322,159.5 C1322,156.5375 1321.0933,154.151042 1319.27989,152.340625 C1317.46649,150.530208 1315.07609,149.625 1312.1087,149.625 L1312.1087,149.625 L1255.72826,149.625 C1252.43116,149.625 1250.78261,147.979167 1250.78261,144.6875 L1250.78261,144.6875 L1250.78261,129.875 C1250.78261,126.9125 1249.87591,124.526042 1248.0625,122.715625 C1246.24909,120.905208 1243.8587,120 1240.8913,120 C1237.92391,120 1235.53351,120.905208 1233.72011,122.715625 C1231.9067,124.526042 1231,126.9125 1231,129.875 L1231,129.875 L1231,159.5 C1231,162.4625 1231.9067,164.848958 1233.72011,166.659375 C1235.53351,168.469792 1237.92391,169.375 1240.8913,169.375 L1240.8913,169.375 L1297.27174,169.375 C1300.56884,169.375 1302.21739,171.020833 1302.21739,174.3125 C1302.21739,177.604167 1300.56884,179.25 1297.27174,179.25 L1297.27174,179.25 L1240.8913,179.25 C1237.92391,179.25 1235.53351,180.155208 1233.72011,181.965625 C1231.9067,183.776042 1231,186.1625 1231,189.125 C1231,192.0875 1231.9067,194.473958 1233.72011,196.284375 C1235.53351,198.094792 1237.92391,199 1240.8913,199 L1240.8913,199 L1312.1087,199 Z M1312.09615,135 L1270.90385,135 C1269.53077,135 1268.37019,134.468333 1267.42212,133.405 C1266.47404,132.341667 1266,131.04 1266,129.5 C1266,127.96 1266.47404,126.658333 1267.42212,125.595 C1268.37019,124.531667 1269.53077,124 1270.90385,124 L1270.90385,124 L1312.09615,124 C1313.46923,124 1314.62981,124.531667 1315.57788,125.595 C1316.52596,126.658333 1317,127.96 1317,129.5 C1317,131.04 1316.52596,132.341667 1315.57788,133.405 C1314.62981,134.468333 1313.46923,135 1312.09615,135 L1312.09615,135 Z M1312,194 L1240,194 C1238.6,194 1237.41667,193.530476 1236.45,192.591429 C1235.48333,191.652381 1235,190.502857 1235,189.142857 C1235,187.782857 1235.48333,186.633333 1236.45,185.694286 C1237.41667,184.755238 1238.6,184.285714 1240,184.285714 L1240,184.285714 L1297,184.285714 C1300,184.285714 1302.41667,183.395238 1304.25,181.614286 C1306.08333,179.833333 1307,177.485714 1307,174.571429 C1307,171.657143 1306.08333,169.309524 1304.25,167.528571 C1302.41667,165.747619 1300,164.857143 1297,164.857143 L1297,164.857143 L1240,164.857143 C1238.6,164.857143 1237.41667,164.387619 1236.45,163.448571 C1235.48333,162.509524 1235,161.36 1235,160 L1235,160 L1235,130.857143 C1235,129.497143 1235.48333,128.347619 1236.45,127.408571 C1237.41667,126.469524 1238.6,126 1240,126 C1241.4,126 1242.58333,126.469524 1243.55,127.408571 C1244.51667,128.347619 1245,129.497143 1245,130.857143 L1245,130.857143 L1245,145.428571 C1245,148.342857 1245.91667,150.690476 1247.75,152.471429 C1249.58333,154.252381 1252,155.142857 1255,155.142857 L1255,155.142857 L1312,155.142857 C1313.4,155.142857 1314.58333,155.612381 1315.55,156.551429 C1316.51667,157.490476 1317,158.64 1317,160 L1317,160 L1317,189.142857 C1317,190.502857 1316.51667,191.652381 1315.55,192.591429 C1314.58333,193.530476 1313.4,194 1312,194 L1312,194 Z" id="BY-TOOLS"></path>
        </g>
    </g>
</svg>